<?xml version="1.0" encoding="utf-8"?>
<!-- Generator: Adobe Illustrator 26.0.3, SVG Export Plug-In . SVG Version: 6.00 Build 0)  -->
<svg version="1.1" id="Layer_1" xmlns="http://www.w3.org/2000/svg" xmlns:xlink="http://www.w3.org/1999/xlink" x="0px" y="0px"
	 viewBox="0 0 1984.3 622.9" style="enable-background:new 0 0 1984.3 622.9;" xml:space="preserve">
<style type="text/css">
	.st0{fill:#FFFFFF;}
	.st1{fill:#1A2236;}
	.st2{fill:#FD6B62;}
</style>
<rect x="7.1" y="8.7" class="st0" width="1970" height="627.8"/>
<g>
	<path class="st1" d="M1042.5,375.9c0-25.1,0.2-50,0-75.1c0-8.4,2.8-12.9,11.8-12c3.9,0.4,7.9,0,11.8,0c15.2,0,15.2,0,16.7,15.2
		c0.2,1.9-0.6,4.9,1.9,5.6c3.2,0.6,4.9-2.6,6.7-4.5c20.6-21.7,45.9-26,73.9-20.8c14,2.6,25.8,9.4,32.9,21.9
		c5.2,8.6,8.6,6.4,14.2,0.9c21.9-22.5,48.7-28.8,78.8-22.1c23.6,5.2,37.8,21,38.4,45.1c1.3,41,0.6,82.2,0.9,123.2
		c0,6.4-2.6,9.9-9.7,9.7c-39.1-0.6-32.4,6-33.1-31.3c-0.4-26.8,1.1-53.7-1.3-80.3c-1.9-22.8-9.9-32-28.3-33.9
		c-23.6-2.4-39.5,7.3-45.7,28.1c-3.4,11.4-4.1,23.2-4.1,35c0,23.6-0.2,47.2,0,70.9c0,8.6-3,12.2-12,11.8
		c-36.3-0.9-30.7,5.6-31.3-30.9c-0.4-25.8,1.1-51.5-1.1-77.1c-2.1-26.2-12.2-37.4-33.3-37.8c-24-0.4-41.7,14.2-44.4,37.4
		c-3.7,30.3-0.9,60.8-1.5,91c-0.4,17.4-0.2,17.4-17,17.4c-27.9-0.2-25.6,4.3-25.8-25.8C1042.5,416.7,1042.5,396.3,1042.5,375.9
		L1042.5,375.9z"/>
	<path class="st1" d="M1729.8,307c2.8-3.7,1.5-8.2,1.7-12.2c0.2-34.4,0.2-68.7,0-103.1c0-9.7,3.2-13.5,13.1-13.3
		c35.9,0.4,29.4-3,29.6,28.3c0.2,80.1,0.2,160.2,0,240.3c0,15.7,0,15.7-15.2,15.7c-5.4,0-10.7-0.2-16.1,0c-6.7,0.2-11.2-1.3-11.4-9
		c-0.2-8.8-4.5-6-8.6-2.4c-20.6,18.9-45.3,21-71.3,16.3c-18.9-3.4-33.3-14.2-44.7-29.2c-26.6-35.2-22.5-102.4,8.4-133.6
		c29.8-30.3,79.7-30.5,109.9-0.4C1726.4,305.9,1727.5,307.6,1729.8,307z M1733,372c-0.2-1.5-0.4-6-1.1-10.5
		c-4.7-27.5-21.9-42.3-48.1-42.1c-26,0-44,15.5-48.3,42.3c-1.7,11-1.9,22.1,0.2,33.1c4.7,23.4,19.3,37.1,40.8,38.9
		c26,1.9,44.4-9.4,52.6-32.9C1731.7,392.2,1733,383.8,1733,372z"/>
	<path class="st2" d="M339.3,471.9c-6-13.1-12-25.8-17.8-38.6c-36.3-80.9-72.6-161.7-108.6-242.6c-4.9-11-4.7-11.4,6.7-11.4
		c12.5,0,26.6-3,37.1,1.7c10.7,4.9,12,20.8,17,32c19.8,44.7,39.3,89.8,58.6,134.6c2.8,6.4,4.7,13.1,8.2,22.5
		c3.2-8.6,5.2-14.8,7.7-20.8c23.2-53.7,46.6-107.6,69.8-161.3c2.8-6.4,6.2-9.4,13.5-9c9.7,0.6,19.3,0,29,0.2
		c12,0.2,12.2,0.4,7.5,11.2c-19.3,43.4-38.9,86.7-58.2,130.1c-21.5,47.7-42.7,95.1-64.2,142.8C343.8,465.8,343.4,469.3,339.3,471.9z
		"/>
	<path class="st1" d="M941.8,447.4c-2.1-0.4-3.2,1.1-4.5,2.1c-49.4,42.1-118.5,19.3-132.7-44c-4.9-21.7-4.7-43.4,1.7-64.6
		c13.7-45.9,59.5-69.4,104.6-53.9c12,4.1,21.7,11.8,30.3,21.9c6.4-20,6.4-20,27.5-20c2.6,0,4.9,0.2,7.5,0
		c7.3-0.4,10.3,2.8,10.1,10.1c-0.2,18.7,0,37.1,0,55.8c0,31.8-0.2,63.6,0.2,95.3c0.2,9.9-3.2,14-13.1,12.9c-2.8-0.2-5.8,0-8.6,0
		C946.5,463.1,946.5,463.1,941.8,447.4z M846.7,377.2c0,3.2-0.2,6.4,0,9.7c1.5,25.1,16.5,43.2,38.4,46.2
		c27.7,3.9,48.5-8.8,56.7-34.4c4.3-13.5,4.5-27.3,1.5-41.2c-5.2-23.6-21.5-37.4-44.9-38.2c-24.9-0.9-42.9,12.2-49.4,35.6
		C846.7,362.1,846.3,369.7,846.7,377.2z"/>
	<path class="st1" d="M1488.5,382.5c-19.8,0-39.3-0.2-59,0c-11.8,0.2-14,3.2-11,14.6c4.9,17.4,15.7,29.8,33.9,33.7
		c26,5.6,48.5-0.2,64.4-23c4.9-7.1,9.7-8.6,16.7-3.9c4.1,2.8,8.8,4.7,13.3,7.1c11.8,6.2,12,7.5,4.5,18.3
		c-38.4,55.2-120.9,48.1-151.6,17.2c-30.1-30.1-34.6-66.3-22.1-104.1c12.5-37.8,42.3-56,81.4-59.5c13.3-1.1,26.4,0.2,39.3,3.4
		c42.9,11,61.8,45.1,62.3,86.7c0,8.2-4.9,9.2-11.4,9.2C1529.3,382.5,1508.9,382.5,1488.5,382.5L1488.5,382.5z M1468.3,354.6
		L1468.3,354.6c11.8,0,23.6,0.2,35.2,0c12.9-0.2,14.6-3,8.6-14.6c-10.3-19.8-28.6-23.4-48.3-22.3c-19.3,0.9-34.1,9.2-41.9,27.9
		c-3,7.1,0.6,9,6.7,9.2C1441.9,354.6,1455,354.6,1468.3,354.6z"/>
	<path class="st1" d="M627.3,312.3c14.6-17.2,31.3-26.2,51.7-28.8c8.6-1.1,17.2-1.5,25.8-0.6c36.9,3.4,55.4,23.2,55.8,60.1
		c0.4,36.1,0,72.1,0.2,108.2c0,7.9-1.9,11.8-10.7,11.6c-39.1-0.9-31.6,5.4-32.2-30.9c-0.4-21,0-42.1,0-63.1c0-2.8,0-5.8-0.2-8.6
		c-1.5-30.1-11-41.7-35.2-42.9c-29.8-1.7-50.5,13.1-53.5,40.4c-3,26.6-0.6,53.5-1.1,80.3c0,5.4-0.2,10.7,0,16.1
		c0.2,5.8-2.1,8.8-8.2,8.6c-0.4,0-0.6,0-1.1,0c-41.4-0.4-33.1,5.8-33.5-31.3c-0.6-43.2,0-86.5-0.2-129.7c0-9.7,2.8-14.2,12.7-12.9
		c1.1,0.2,2.1,0,3.2,0C622.7,288.7,622.7,288.7,627.3,312.3z"/>
	<path class="st1" d="M526.8,376.1c0,24.9-0.2,50,0.2,74.9c0.2,8.6-2.6,12.5-11.6,11.8c-6.7-0.4-13.5-0.4-20.4,0
		c-8.4,0.4-11.4-3-11.2-11.2c0.4-24.3,0-48.5,0-72.8c0-26,0.2-52.2-0.2-78.2c-0.2-8.6,2.6-12.7,11.6-12c6.7,0.4,13.5,0.4,20.4,0
		c8.4-0.4,11.4,3,11.2,11.2C526.3,325.4,526.8,350.8,526.8,376.1z"/>
</g>
</svg>
